<?xml version="1.0" encoding="utf-8"?>
<!-- Generator: Adobe Illustrator 25.1.0, SVG Export Plug-In . SVG Version: 6.00 Build 0)  -->
<svg version="1.1" id="Capa_1" xmlns="http://www.w3.org/2000/svg" xmlns:xlink="http://www.w3.org/1999/xlink" x="0px" y="0px"
	 viewBox="0 0 1708.97 595.28" style="enable-background:new 0 0 1708.97 595.28;" xml:space="preserve">
<style type="text/css">
	.st0{fill:#009342;}
	.st1{fill:#2E2868;}
	.st2{fill:#009245;}
</style>
<g>
	<g>
		<g>
			<g>
				<g>
					<path class="st0" d="M365.96,163.71c-45.9-10.87-91.9,6.24-120.58,40.33c9.42-0.9,19.12-0.32,28.81,1.97
						c5.6,1.33,10.98,3.21,16.12,5.53c19.11-12.97,43.24-18.21,67.34-12.5c46.02,10.9,74.44,57.54,63.49,104.16
						c-10.96,46.63-57.14,75.59-103.16,64.69c-2.91-0.69-5.75-1.52-8.51-2.49c-12.1,9.88-26.44,16.35-41.63,18.9
						c12.27,8.71,26.34,15.26,41.84,18.93c65.28,15.46,130.8-25.63,146.34-91.77C471.56,245.33,431.24,179.17,365.96,163.71z"/>
				</g>
				<g>
					<path class="st1" d="M325.94,325.05c0.35-0.77-0.21-1.65-1.05-1.65l-35.78-0.16c-9.05,10.88-22.9,17.82-38.4,17.75
						c-27.12-0.12-49.01-21.62-48.89-48.01c0.12-26.39,22.2-47.69,49.32-47.57c13.33,0.06,25.39,5.28,34.2,13.71
						c0.26,0.25,0.6,0.39,0.95,0.39l36.99,0.17c0.88,0,1.44-0.92,1.04-1.7c-0.5-0.99-1.03-1.97-1.57-2.94
						c-13.83-24.6-40.61-41.34-71.46-41.49c-45.2-0.21-82,35.29-82.2,79.28c-0.2,43.99,36.28,79.82,81.48,80.02
						C284.25,372.99,313.26,353.3,325.94,325.05z"/>
				</g>
				<g>
					<path class="st1" d="M312.13,307.6h12.7l6.21,13.18c0.44,0.92,1.75,0.92,2.19,0l6.21-13.18h12.7c0.91,0,1.5-0.97,1.07-1.78
						l-20.01-37.43c-0.45-0.85-1.66-0.85-2.12,0l-20.01,37.43C310.63,306.63,311.22,307.6,312.13,307.6z"/>
				</g>
				<g>
					<path class="st0" d="M373.63,307.87l6.21,13.18c0.44,0.92,1.75,0.92,2.19,0l6.21-13.18h12.7c0.91,0,1.5-0.97,1.06-1.78
						l-20.01-37.43c-0.45-0.85-1.66-0.85-2.12,0l-20.01,37.43c-0.43,0.8,0.15,1.78,1.06,1.78H373.63z"/>
				</g>
			</g>
			<g>
				<g>
					<path class="st0" d="M563.93,266.86c-5.33-2.53-10.69-3.79-16.07-3.79c-6.48,0-12.42,1.5-17.8,4.49
						c-5.38,2.99-9.61,7.07-12.69,12.23c-3.08,5.16-4.61,10.89-4.61,17.18c0,6.3,1.54,12.05,4.61,17.26
						c3.07,5.21,7.3,9.34,12.69,12.38c5.38,3.04,11.31,4.57,17.8,4.57c5.16,0,10.41-1.16,15.74-3.48
						c5.33-2.32,10.08-5.44,14.25-9.36l15.33,15.63c-6.15,5.99-13.38,10.73-21.67,14.24c-8.3,3.51-16.62,5.26-24.97,5.26
						c-11.32,0-21.59-2.45-30.82-7.35c-9.23-4.9-16.48-11.63-21.75-20.2c-5.27-8.56-7.91-18.11-7.91-28.63
						c0-10.42,2.69-19.86,8.07-28.33c5.38-8.46,12.77-15.12,22.16-19.97c9.39-4.85,19.8-7.27,31.23-7.27
						c8.35,0,16.59,1.63,24.72,4.88c8.13,3.25,15.05,7.66,20.76,13.23l-15.16,17.49C573.9,272.88,569.26,269.39,563.93,266.86z"/>
				</g>
				<g>
					<path class="st0" d="M685.13,248.99c9.45,4.85,16.89,11.53,22.33,20.04c5.44,8.51,8.16,17.98,8.16,28.4
						c0,10.42-2.72,19.92-8.16,28.48c-5.44,8.57-12.88,15.3-22.33,20.2c-9.45,4.9-19.94,7.35-31.47,7.35s-22.03-2.45-31.47-7.35
						c-9.45-4.9-16.89-11.61-22.33-20.12c-5.44-8.51-8.16-18.03-8.16-28.56c0-10.42,2.72-19.89,8.16-28.4
						c5.44-8.51,12.85-15.19,22.25-20.04c9.39-4.85,19.91-7.27,31.56-7.27C665.19,241.71,675.68,244.14,685.13,248.99z
						 M636.19,267.64c-5.49,3.04-9.83,7.2-13.02,12.46c-3.19,5.26-4.78,11.04-4.78,17.34c0,6.4,1.62,12.23,4.86,17.49
						c3.24,5.26,7.58,9.44,13.02,12.54c5.44,3.1,11.34,4.64,17.72,4.64c6.37,0,12.22-1.52,17.55-4.57
						c5.33-3.04,9.56-7.22,12.69-12.54c3.13-5.31,4.7-11.17,4.7-17.57c0-6.29-1.57-12.07-4.7-17.34
						c-3.13-5.26-7.36-9.41-12.69-12.46c-5.33-3.04-11.18-4.57-17.55-4.57C647.61,263.07,641.68,264.59,636.19,267.64z"/>
				</g>
				<g>
					<path class="st0" d="M726.16,243.41h82.89l-0.16,20.28H752.2v26.62h52.07v20.43H752.2v41.02h-26.04V243.41z"/>
				</g>
				<g>
					<path class="st0" d="M848.68,325.37c4.67,4.49,10.9,6.73,18.7,6.73c7.58,0,13.62-2.22,18.13-6.66
						c4.5-4.44,6.76-10.58,6.76-18.42v-63.62h26.04v63.62c0,9.49-2.06,17.72-6.18,24.69c-4.12,6.97-10.03,12.33-17.71,16.1
						c-7.69,3.77-16.75,5.65-27.19,5.65c-10.44,0-19.56-1.88-27.35-5.65c-7.8-3.77-13.79-9.13-17.96-16.1
						c-4.18-6.97-6.26-15.19-6.26-24.69v-63.62h26.04v63.62C841.68,314.77,844.01,320.88,848.68,325.37z"/>
				</g>
				<g>
					<path class="st0" d="M1015.53,250.3c9.23,4.59,16.4,10.99,21.5,19.19s7.66,17.57,7.66,28.09c0,10.53-2.61,19.89-7.83,28.09
						c-5.22,8.2-12.5,14.6-21.83,19.19c-9.34,4.59-20,6.89-31.97,6.89h-47.95V243.41h48.94
						C995.81,243.41,1006.3,245.71,1015.53,250.3z M1001.93,326.92c5.11-2.84,9.09-6.78,11.95-11.84
						c2.86-5.05,4.28-10.83,4.28-17.34c0-6.5-1.51-12.33-4.53-17.49c-3.02-5.16-7.14-9.16-12.36-12
						c-5.22-2.84-11.12-4.26-17.71-4.26h-22.41v67.18h23.56C991.08,331.18,996.82,329.76,1001.93,326.92z"/>
				</g>
				<g>
					<path class="st0" d="M1055.24,243.41h87.83v20.28h-61.8v23.53h55.53v20.28h-55.53v23.99h63.61v20.28h-89.64V243.41z"/>
				</g>
				<g>
					<path class="st0" d="M1241.78,253.24c8.02,6.55,12.03,15.81,12.03,27.78c0,12.59-4.04,22.37-12.11,29.33
						c-8.07,6.97-19.42,10.45-34.03,10.45h-22.91v30.96h-26.04V243.41h48.94C1222.39,243.41,1233.76,246.69,1241.78,253.24z
						 M1223.24,295.65c3.9-3.15,5.85-7.76,5.85-13.85c0-5.98-1.95-10.5-5.85-13.54c-3.9-3.04-9.53-4.57-16.89-4.57h-21.59v36.68
						h21.59C1213.71,300.37,1219.34,298.8,1223.24,295.65z"/>
				</g>
			</g>
		</g>
	</g>
</g>
<g>
	<g>
		<path class="st1" d="M1418.77,243.58c-17.18,0-33.08,5.48-46.07,14.75c2.2-2.16,4.26-4.41,6.18-6.76c3.67-4.5,6.6-9.45,8.78-14.86
			c2.17-5.4,3.26-11.4,3.26-18.01c0-7.35-1.24-13.81-3.71-19.36c-2.47-5.55-5.93-10.17-10.35-13.85c-4.43-3.67-9.61-6.45-15.53-8.33
			c-5.93-1.87-12.35-2.81-19.25-2.81c-8.55,0-16.02,1.39-22.4,4.16c-6.38,2.78-11.67,6.64-15.87,11.59
			c-4.2,4.95-7.32,10.84-9.34,17.67c-2,6.74-2.94,14.1-2.82,22.08c0,0.18,0.15,0.32,0.33,0.32h13.54c0.18,0,0.32-0.15,0.32-0.33
			c-0.12-5.73,0.44-11.17,1.7-16.33c1.27-5.25,3.34-9.9,6.19-13.96c2.85-4.05,6.56-7.28,11.14-9.68c4.58-2.4,10.09-3.6,16.55-3.6
			c4.8,0,9.34,0.71,13.62,2.14c4.28,1.43,8.03,3.53,11.26,6.3c3.23,2.78,5.78,6.16,7.65,10.13c1.87,3.98,2.81,8.52,2.81,13.62
			c0,6.3-1.09,11.74-3.27,16.32c-2.18,4.58-5.44,9.04-9.79,13.39c-4.35,4.36-9.27,8.44-14.74,12.27c-5.48,3.83-11,7.58-16.55,11.26
			c-5.55,3.68-10.96,7.51-16.21,11.48c-5.25,3.98-9.98,8.37-14.18,13.17c-4.2,4.81-7.58,10.21-10.13,16.21
			c-2.52,5.92-3.86,12.71-4.04,20.38c0,0.18,0.14,0.34,0.33,0.34h51.91c5.06,38.97,38.36,69.08,78.71,69.08
			c43.85,0,79.4-35.55,79.4-79.4C1498.17,279.12,1462.62,243.58,1418.77,243.58z M1304.09,319.85c0.94-5.1,3.17-9.81,6.68-14.13
			c3.6-4.42,7.77-8.51,12.49-12.27c4.73-3.75,9.64-7.17,14.74-10.24c5.1-3.07,9.53-5.89,13.28-8.44c3.81-2.39,7.48-4.93,11.01-7.61
			c-13.58,13.74-22.17,32.4-22.88,53.08h-35.02C1304.21,320.24,1304.06,320.05,1304.09,319.85z M1418.77,389.49
			c-33.22,0-60.75-24.36-65.71-56.19h21.22c0.18,0,0.32-0.14,0.32-0.32v-12.41c0-0.18-0.14-0.32-0.32-0.32h-21.95
			c1.44-35.46,30.63-63.77,66.44-63.77c36.73,0,66.51,29.78,66.51,66.51C1485.28,359.71,1455.5,389.49,1418.77,389.49z"/>
		<path class="st1" d="M1533.9,320.68h-25.28c-0.18,0-0.33,0.15-0.32,0.33c0.02,0.65,0.05,1.31,0.05,1.97
			c0,3.52-0.23,6.99-0.62,10.4c-0.02,0.19,0.12,0.35,0.32,0.35h25.86c0.18,0,0.32-0.14,0.32-0.32V321
			C1534.22,320.82,1534.08,320.68,1533.9,320.68z"/>
	</g>
	<g>
		<path class="st0" d="M1390.87,311.87l-8.28,21.9h4.85l1.72-4.88h8.19l1.66,4.88h5l-8.19-21.9H1390.87z M1390.41,325.31l2.85-8.04
			h0.06l2.76,8.04H1390.41z"/>
		<polygon class="st0" points="1419.28,326.57 1419.22,326.57 1410.08,311.87 1405.29,311.87 1405.29,333.78 1409.8,333.78 
			1409.8,319.11 1409.86,319.11 1418.97,333.78 1423.79,333.78 1423.79,311.87 1419.28,311.87 		"/>
		<path class="st0" d="M1416.76,306.9c-0.35,0-0.69-0.06-1.03-0.17c-0.34-0.11-0.67-0.24-1-0.38c-0.33-0.12-0.65-0.24-0.97-0.35
			c-0.32-0.11-0.65-0.17-1-0.17c-0.67,0-1.24,0.11-1.69,0.34c-0.45,0.23-0.82,0.52-1.1,0.88c-0.29,0.36-0.51,0.76-0.67,1.2
			c-0.17,0.44-0.3,0.89-0.4,1.33h1.87c0.1-0.39,0.24-0.7,0.41-0.94c0.17-0.23,0.46-0.35,0.88-0.35c0.35,0,0.69,0.05,1.04,0.15
			c0.35,0.1,0.72,0.23,1.11,0.37c0.39,0.12,0.79,0.24,1.2,0.35c0.41,0.11,0.85,0.17,1.32,0.17c0.61,0,1.12-0.12,1.52-0.35
			c0.4-0.24,0.72-0.53,0.98-0.87c0.25-0.35,0.45-0.73,0.58-1.14c0.13-0.41,0.25-0.79,0.35-1.14h-2.12c0.02,0.29-0.07,0.54-0.27,0.75
			C1417.57,306.8,1417.23,306.9,1416.76,306.9z"/>
		<path class="st0" d="M1445.14,314.7c-0.92-1.04-2.05-1.86-3.37-2.45c-1.33-0.59-2.84-0.89-4.54-0.89c-1.68,0-3.19,0.3-4.53,0.89
			s-2.47,1.41-3.39,2.45c-0.92,1.04-1.63,2.27-2.12,3.67c-0.49,1.4-0.74,2.92-0.74,4.56c0,1.59,0.25,3.08,0.74,4.46
			s1.2,2.58,2.12,3.6c0.92,1.02,2.05,1.83,3.39,2.41c1.34,0.58,2.85,0.87,4.53,0.87c1.7,0,3.21-0.29,4.54-0.87
			c1.33-0.58,2.45-1.39,3.37-2.41c0.92-1.02,1.63-2.22,2.12-3.6s0.74-2.87,0.74-4.46c0-1.64-0.25-3.16-0.74-4.56
			C1446.77,316.96,1446.06,315.74,1445.14,314.7z M1442.86,325.6c-0.21,0.87-0.56,1.65-1.03,2.35c-0.47,0.69-1.08,1.25-1.84,1.67
			c-0.76,0.42-1.68,0.63-2.76,0.63s-2-0.21-2.76-0.63c-0.76-0.42-1.37-0.98-1.84-1.67c-0.47-0.7-0.81-1.48-1.03-2.35
			c-0.22-0.87-0.32-1.76-0.32-2.68c0-0.96,0.11-1.89,0.32-2.79c0.21-0.9,0.56-1.7,1.03-2.41c0.47-0.71,1.08-1.27,1.84-1.69
			c0.76-0.42,1.68-0.63,2.76-0.63s2,0.21,2.76,0.63c0.76,0.42,1.37,0.98,1.84,1.69c0.47,0.71,0.81,1.51,1.03,2.41
			c0.22,0.9,0.32,1.83,0.32,2.79C1443.18,323.84,1443.07,324.73,1442.86,325.6z"/>
		<path class="st0" d="M1465.09,322.37c-0.72-0.47-1.44-0.81-2.16-1.03c-0.73-0.22-1.29-0.36-1.7-0.44
			c-1.37-0.35-2.48-0.63-3.33-0.86c-0.85-0.22-1.51-0.45-2-0.68c-0.48-0.22-0.8-0.47-0.96-0.74c-0.17-0.27-0.25-0.61-0.25-1.04
			c0-0.47,0.1-0.86,0.3-1.16c0.2-0.31,0.47-0.56,0.78-0.77c0.32-0.2,0.67-0.35,1.06-0.43c0.39-0.08,0.78-0.12,1.16-0.12
			c0.59,0,1.14,0.05,1.64,0.15c0.5,0.1,0.94,0.28,1.33,0.52c0.39,0.25,0.7,0.58,0.93,1.01c0.24,0.43,0.38,0.97,0.42,1.63h4.66
			c0-1.27-0.24-2.35-0.72-3.24c-0.48-0.89-1.13-1.62-1.95-2.19c-0.82-0.57-1.75-0.99-2.81-1.24c-1.06-0.25-2.16-0.38-3.3-0.38
			c-0.98,0-1.96,0.13-2.94,0.4s-1.86,0.67-2.64,1.23c-0.78,0.55-1.41,1.24-1.89,2.07c-0.48,0.83-0.72,1.8-0.72,2.93
			c0,1,0.19,1.86,0.57,2.56c0.38,0.71,0.88,1.29,1.49,1.76c0.61,0.47,1.31,0.85,2.09,1.15c0.78,0.3,1.58,0.55,2.39,0.75
			c0.8,0.23,1.58,0.43,2.36,0.61c0.77,0.18,1.47,0.4,2.08,0.64c0.61,0.25,1.11,0.55,1.49,0.92c0.38,0.37,0.57,0.85,0.57,1.44
			c0,0.55-0.15,1.01-0.43,1.37c-0.29,0.36-0.64,0.64-1.07,0.84s-0.89,0.34-1.38,0.41c-0.49,0.07-0.95,0.11-1.38,0.11
			c-0.63,0-1.25-0.08-1.84-0.23c-0.59-0.15-1.11-0.39-1.55-0.71c-0.44-0.32-0.79-0.73-1.06-1.24s-0.4-1.14-0.4-1.87h-4.66
			c-0.02,1.35,0.22,2.52,0.74,3.5c0.51,0.98,1.2,1.79,2.07,2.42c0.87,0.63,1.87,1.1,3.01,1.4c1.14,0.3,2.31,0.44,3.51,0.44
			c1.49,0,2.81-0.17,3.94-0.52c1.14-0.35,2.09-0.83,2.85-1.46c0.77-0.62,1.34-1.36,1.74-2.22c0.39-0.86,0.58-1.79,0.58-2.79
			c0-1.23-0.26-2.23-0.78-3.02C1466.42,323.47,1465.8,322.84,1465.09,322.37z"/>
		<path class="st0" d="M1409.43,224.54c-0.03-0.41-0.02-0.82,0.04-1.24c0.05-0.42,0.16-0.81,0.32-1.16c0.17-0.36,0.4-0.65,0.69-0.88
			c0.3-0.23,0.67-0.37,1.13-0.4c0.67-0.05,1.23,0.12,1.69,0.51c0.46,0.38,0.72,0.95,0.77,1.69c0.03,0.47-0.04,0.89-0.23,1.27
			c-0.19,0.38-0.43,0.72-0.72,1.04c-0.29,0.31-0.62,0.6-0.98,0.87c-0.36,0.27-0.7,0.53-1.02,0.79c-0.62,0.5-1.21,0.98-1.77,1.46
			c-0.56,0.48-1.04,0.99-1.44,1.54c-0.4,0.55-0.71,1.16-0.91,1.83c-0.21,0.67-0.28,1.45-0.22,2.34l11.22-0.79l-0.19-2.66l-7.23,0.51
			c0.34-0.55,0.75-1.04,1.21-1.47c0.47-0.43,0.95-0.83,1.45-1.21c0.5-0.38,0.99-0.76,1.49-1.15c0.49-0.38,0.92-0.81,1.3-1.27
			c0.38-0.46,0.67-0.97,0.88-1.54s0.29-1.24,0.24-2.01c-0.05-0.74-0.24-1.4-0.57-1.98s-0.75-1.05-1.26-1.43s-1.08-0.65-1.74-0.82
			c-0.65-0.17-1.32-0.24-2.02-0.19c-0.92,0.07-1.72,0.28-2.4,0.64c-0.68,0.36-1.24,0.84-1.67,1.44s-0.73,1.27-0.91,2.04
			c-0.18,0.77-0.22,1.58-0.13,2.46L1409.43,224.54z"/>
		<path class="st0" d="M1428.72,233.98c0.7-0.2,1.34-0.59,1.9-1.15c0.57-0.57,1.05-1.35,1.43-2.35c0.39-1,0.65-2.26,0.78-3.79
			c0.13-1.48,0.09-2.74-0.12-3.78c-0.21-1.04-0.55-1.88-1.01-2.54c-0.47-0.65-1.03-1.14-1.68-1.46c-0.65-0.32-1.36-0.51-2.14-0.58
			c-0.75-0.07-1.48,0-2.18,0.21s-1.33,0.59-1.89,1.15c-0.56,0.57-1.03,1.34-1.42,2.33c-0.39,0.98-0.65,2.22-0.78,3.7
			c-0.13,1.53-0.09,2.82,0.12,3.87c0.21,1.05,0.55,1.9,1,2.56s1.01,1.14,1.66,1.46c0.66,0.32,1.36,0.51,2.12,0.58
			C1427.29,234.25,1428.03,234.18,1428.72,233.98z M1425.35,230.92c-0.3-0.44-0.5-0.95-0.6-1.54c-0.11-0.59-0.14-1.19-0.12-1.81
			c0.03-0.62,0.06-1.15,0.1-1.58c0.02-0.26,0.05-0.58,0.09-0.95c0.04-0.37,0.1-0.75,0.18-1.14c0.08-0.39,0.18-0.77,0.32-1.15
			c0.13-0.38,0.3-0.71,0.51-1c0.21-0.29,0.46-0.52,0.76-0.68s0.66-0.23,1.08-0.19c0.42,0.04,0.77,0.16,1.05,0.38
			c0.27,0.21,0.49,0.48,0.65,0.8c0.17,0.32,0.28,0.68,0.34,1.07c0.06,0.39,0.1,0.79,0.12,1.19c0.02,0.4,0.01,0.78-0.01,1.15
			c-0.03,0.37-0.05,0.69-0.07,0.95c-0.04,0.44-0.1,0.96-0.18,1.58c-0.09,0.62-0.22,1.2-0.43,1.77c-0.2,0.56-0.49,1.03-0.87,1.41
			c-0.37,0.38-0.88,0.54-1.52,0.48C1426.12,231.6,1425.65,231.36,1425.35,230.92z"/>
		<path class="st0" d="M1446.37,221.99c-0.59-0.42-1.27-0.72-2.02-0.91c-0.74-0.18-1.46-0.23-2.19-0.14
			c-0.72,0.09-1.41,0.37-2.05,0.84c-0.65,0.47-1.23,1.16-1.77,2.07c-0.54,0.91-0.99,2.09-1.35,3.53c-0.37,1.49-0.54,2.76-0.5,3.84
			c0.04,1.07,0.24,1.97,0.58,2.68c0.35,0.72,0.82,1.29,1.41,1.71c0.6,0.42,1.26,0.72,2,0.91c0.75,0.19,1.49,0.24,2.21,0.15
			c0.72-0.09,1.41-0.37,2.06-0.84c0.65-0.47,1.25-1.17,1.79-2.09c0.54-0.93,1-2.13,1.37-3.62c0.36-1.44,0.52-2.69,0.48-3.75
			c-0.04-1.06-0.25-1.95-0.6-2.67S1446.97,222.41,1446.37,221.99z M1445.32,227.3c-0.05,0.39-0.11,0.77-0.19,1.14
			c-0.09,0.36-0.16,0.67-0.22,0.93c-0.11,0.42-0.25,0.93-0.43,1.53c-0.18,0.59-0.41,1.15-0.7,1.67c-0.29,0.52-0.65,0.94-1.09,1.25
			c-0.43,0.31-0.96,0.39-1.58,0.24c-0.61-0.15-1.03-0.47-1.25-0.95c-0.22-0.48-0.34-1.02-0.35-1.61c-0.01-0.6,0.05-1.2,0.17-1.81
			c0.12-0.61,0.24-1.13,0.34-1.55c0.06-0.25,0.14-0.56,0.25-0.92c0.1-0.36,0.21-0.72,0.35-1.1c0.14-0.37,0.3-0.73,0.5-1.08
			c0.19-0.35,0.42-0.65,0.67-0.9s0.53-0.44,0.86-0.55c0.32-0.11,0.69-0.12,1.1-0.02c0.41,0.1,0.74,0.28,0.97,0.54
			c0.24,0.26,0.41,0.55,0.52,0.9c0.11,0.34,0.17,0.71,0.17,1.11C1445.39,226.51,1445.36,226.9,1445.32,227.3z"/>
		<path class="st0" d="M1456.24,241.74l6.03-14.09l-2.27-0.97c-0.31,0.5-0.67,0.88-1.08,1.13c-0.41,0.25-0.85,0.41-1.31,0.47
			c-0.46,0.06-0.95,0.04-1.44-0.07c-0.5-0.11-0.99-0.28-1.49-0.51l-0.92,2.15l3.54,1.52l-3.91,9.14L1456.24,241.74z"/>
		<polygon class="st0" points="1472.23,245.52 1477.52,249.45 1479.11,247.31 1473.83,243.38 		"/>
		<path class="st0" d="M1490.24,262.75c0.62,0.13,1.23,0.28,1.83,0.47c0.6,0.18,1.2,0.36,1.8,0.53c0.6,0.17,1.2,0.28,1.79,0.31
			c0.59,0.04,1.18-0.03,1.77-0.19c0.58-0.17,1.17-0.5,1.76-0.99c0.57-0.48,0.99-1.02,1.27-1.62c0.27-0.6,0.42-1.22,0.42-1.85
			c0.01-0.63-0.11-1.26-0.35-1.89c-0.24-0.63-0.58-1.21-1.04-1.75c-0.59-0.71-1.23-1.23-1.92-1.57c-0.7-0.34-1.41-0.51-2.14-0.51
			c-0.73,0-1.46,0.16-2.18,0.46c-0.73,0.3-1.42,0.75-2.07,1.33l1.91,2.28c0.31-0.26,0.65-0.5,1.02-0.7
			c0.37-0.21,0.75-0.35,1.13-0.42c0.38-0.07,0.76-0.06,1.12,0.05c0.36,0.1,0.7,0.33,0.98,0.68c0.43,0.51,0.63,1.07,0.58,1.67
			c-0.04,0.6-0.35,1.14-0.92,1.61c-0.36,0.3-0.74,0.49-1.16,0.56c-0.42,0.07-0.83,0.08-1.26,0.03c-0.43-0.05-0.85-0.15-1.28-0.28
			c-0.43-0.14-0.84-0.26-1.23-0.36c-0.77-0.21-1.51-0.41-2.23-0.58c-0.72-0.17-1.41-0.26-2.09-0.26c-0.68,0-1.35,0.11-2.02,0.33
			s-1.34,0.63-2.03,1.2l7.23,8.63l2.05-1.72l-4.66-5.56C1488.99,262.58,1489.62,262.62,1490.24,262.75z"/>
		<path class="st0" d="M1505.1,278.06c1.28-0.76,2.28-1.53,2.99-2.31c0.72-0.78,1.2-1.55,1.46-2.31c0.26-0.76,0.33-1.5,0.21-2.21
			c-0.12-0.72-0.38-1.41-0.78-2.07c-0.39-0.65-0.87-1.2-1.44-1.65c-0.57-0.45-1.26-0.73-2.04-0.86c-0.79-0.12-1.69-0.05-2.72,0.21
			c-1.02,0.26-2.18,0.78-3.45,1.54c-1.31,0.79-2.34,1.57-3.07,2.36c-0.73,0.78-1.23,1.55-1.49,2.31c-0.26,0.75-0.34,1.49-0.21,2.21
			c0.12,0.72,0.38,1.4,0.77,2.05c0.4,0.66,0.88,1.22,1.45,1.67c0.57,0.45,1.26,0.74,2.05,0.87c0.8,0.13,1.71,0.06,2.75-0.21
			C1502.61,279.38,1503.79,278.85,1505.1,278.06z M1498.79,276.97c-0.53-0.09-0.96-0.4-1.28-0.95c-0.32-0.54-0.4-1.06-0.21-1.56
			c0.18-0.5,0.48-0.96,0.89-1.39c0.41-0.43,0.88-0.81,1.4-1.16c0.51-0.34,0.96-0.63,1.34-0.85c0.23-0.13,0.5-0.3,0.82-0.48
			c0.33-0.18,0.67-0.36,1.03-0.52c0.36-0.16,0.74-0.3,1.12-0.41c0.38-0.11,0.75-0.17,1.11-0.17c0.35,0,0.68,0.07,0.99,0.22
			c0.31,0.15,0.57,0.4,0.79,0.77c0.21,0.36,0.32,0.72,0.3,1.07c-0.01,0.35-0.1,0.68-0.27,1c-0.17,0.32-0.39,0.62-0.67,0.9
			c-0.28,0.28-0.58,0.54-0.89,0.79c-0.32,0.25-0.63,0.47-0.95,0.66c-0.32,0.2-0.58,0.36-0.81,0.5c-0.38,0.22-0.84,0.48-1.39,0.78
			c-0.55,0.29-1.11,0.52-1.68,0.69C1499.86,277.02,1499.32,277.06,1498.79,276.97z"/>
		<path class="st0" d="M1503.73,287.38c0.63,0.16,1.22,0.39,1.77,0.71c0.54,0.32,1.08,0.65,1.59,1.01c0.51,0.36,1.03,0.72,1.54,1.07
			c0.52,0.35,1.05,0.64,1.6,0.86c0.55,0.22,1.13,0.34,1.74,0.37c0.61,0.02,1.27-0.11,1.99-0.39c0.69-0.28,1.26-0.66,1.72-1.14
			c0.45-0.49,0.77-1.03,0.97-1.63c0.2-0.6,0.29-1.23,0.26-1.9s-0.18-1.33-0.44-1.98c-0.34-0.86-0.79-1.55-1.34-2.09
			c-0.55-0.54-1.18-0.92-1.87-1.15c-0.7-0.23-1.44-0.31-2.22-0.25c-0.79,0.06-1.58,0.27-2.38,0.62l1.11,2.76
			c0.38-0.15,0.78-0.27,1.19-0.35c0.42-0.08,0.82-0.09,1.21-0.05c0.39,0.05,0.74,0.18,1.05,0.39c0.31,0.21,0.55,0.53,0.72,0.95
			c0.25,0.62,0.26,1.21,0.04,1.77c-0.23,0.55-0.69,0.97-1.38,1.25c-0.43,0.17-0.86,0.23-1.28,0.17s-0.82-0.18-1.21-0.37
			c-0.38-0.18-0.76-0.41-1.13-0.67c-0.36-0.26-0.72-0.51-1.06-0.73c-0.66-0.44-1.3-0.86-1.94-1.24c-0.63-0.39-1.26-0.69-1.9-0.9
			c-0.64-0.22-1.31-0.32-2.02-0.31c-0.71,0.01-1.47,0.17-2.3,0.5l4.17,10.45l2.48-0.99L1503.73,287.38z"/>
		<path class="st0" d="M1520.99,300.07c-0.59,0.04-1.11-0.03-1.56-0.22c-0.44-0.18-0.83-0.45-1.15-0.79s-0.58-0.74-0.79-1.21
			c-0.2-0.47-0.36-0.97-0.46-1.5l-2.29,0.51l0.84,3.76l-9.7,2.17l0.67,3.03l14.96-3.34L1520.99,300.07z"/>
	</g>
</g>
</svg>
